# xmcd CD database file
#
# Track frame offsets:
#	150
#	21858
#	47891
#	71594
#	88986
#	116123
#	140045
#	160738
#	180984
#	212423
#	236769
#	257422
#
# Disc length: 3608 seconds
#
# Revision: 0
# Processed by: cddbd v1.5.2PL0 Copyright (c) Steve Scherf et al.
# Submitted via: CDex 1.51
#
DISCID=a70e160c
DTITLE=Popa Chubby - The Fight is On ( US )
DYEAR=2010
DGENRE=Blues
TTITLE0=The Fight is On
TTITLE1=We got some Rocking to do
TTITLE2=Another ten years gone
TTITLE3=The Right Time
TTITLE4=Rovk n Roll is my religion
TTITLE5=The company of Thieves
TTITLE6=Switchblade Combs and Candy Cigarettes
TTITLE7=Noicemaking Love Machine
TTITLE8=Steelhorse Seranade
TTITLE9=It's Over
TTITLE10=Wicket Wanda
TTITLE11=Ace of Spades
EXTD=YEAR: 2010
EXTT0=
EXTT1=
EXTT2=
EXTT3=
EXTT4=
EXTT5=
EXTT6=
EXTT7=
EXTT8=
EXTT9=
EXTT10=
EXTT11=
PLAYORDER=
